<svg width="468" height="380" viewBox="0 0 468 380" fill="none" xmlns="http://www.w3.org/2000/svg">
<path d="M16.949 198.174C38.862 222.981 66.598 232.62 80.276 262.76C89.653 283.421 85.254 307.881 92.181 329.486C101.676 359.099 132.872 378.992 163.97 379.099C195.067 379.205 224.71 361.586 243.163 336.556C249.215 328.347 254.46 319.117 262.943 313.457C275.094 305.352 290.854 306.394 305.402 305.097C341.272 301.901 375.264 281.758 395.293 251.83C395.293 251.83 447.252 190.522 410.47 102.814C399.778 77.32 382.447 53.907 358.548 40.014C334.65 26.12 293.062 25.79 268.455 38.387C242.293 51.78 224.9 81.135 196.224 87.583C179.603 91.32 162.443 86.463 145.705 83.287C122.226 78.83 98.292 76.061 74.585 79.072C46.681 82.615 18.535 96.607 5.52002 128.064C0.960021 139.08 -0.570979 151.166 1.24602 162.95C2.87402 173.517 6.99202 186.903 16.949 198.174Z" fill="#F4F9FF"/>
<path d="M232.58 17.025C226.549 9.45297 217.152 5.31897 207.755 2.98997C194.789 -0.223027 180.847 -0.470027 168.27 4.02997C155.693 8.52797 144.662 18.12 140.024 30.647C135.387 43.174 137.942 58.489 147.565 67.754C152.957 72.945 160.529 75.737 167.974 75.717C172.389 76.187 176.899 75.691 181.049 74.093C190.281 70.536 197.067 62.463 205.92 58.046C215.543 53.246 227.91 52.48 234.422 43.924C240.285 36.22 238.611 24.597 232.58 17.024V17.025ZM59.107 285.374C58.102 283.315 57.167 281.231 56.555 279.026C54.6 271.964 56.021 263.911 52.229 257.641C47.467 249.766 35.739 248.329 27.759 252.913C19.779 257.497 15.217 266.465 13.27 275.46C12.071 280.999 11.723 286.898 13.62 292.237C15.827 298.447 20.846 303.272 26.32 306.941C32.405 311.021 39.512 314.015 46.835 313.766C50.095 313.656 53.382 312.791 56.282 311.276C58.569 310.283 60.599 308.748 61.996 306.757C63.011 305.554 63.867 304.219 64.494 302.747C67.094 296.626 64.749 288.571 59.107 285.374Z" fill="#F4F9FF"/>
<path d="M347.637 284.85H119.014C117.98 284.847 116.99 284.435 116.259 283.704C115.528 282.973 115.116 281.983 115.113 280.949V134.256C115.116 133.222 115.528 132.232 116.259 131.501C116.99 130.77 117.98 130.358 119.014 130.355H347.637C348.671 130.358 349.661 130.77 350.392 131.501C351.123 132.232 351.535 133.222 351.538 134.256V280.949C351.535 281.983 351.123 282.973 350.392 283.704C349.661 284.435 348.671 284.847 347.637 284.85Z" fill="#0367F2"/>
<path d="M345.686 141.59H120.965V269.867H345.686V141.59ZM234.739 135.512C234.739 135.698 234.702 135.881 234.631 136.053C234.56 136.224 234.456 136.38 234.324 136.511C234.193 136.642 234.037 136.746 233.866 136.817C233.694 136.888 233.511 136.924 233.325 136.924C233.139 136.924 232.956 136.887 232.784 136.816C232.613 136.745 232.457 136.641 232.326 136.509C232.195 136.378 232.091 136.222 232.02 136.051C231.949 135.879 231.913 135.696 231.913 135.51C231.913 135.135 232.062 134.776 232.328 134.511C232.593 134.246 232.952 134.098 233.327 134.098C233.702 134.098 234.061 134.247 234.326 134.513C234.591 134.778 234.739 135.137 234.739 135.512ZM383.359 335.259L354.318 289.04C353.512 287.757 352.393 286.699 351.067 285.966C349.74 285.233 348.249 284.849 346.734 284.849H119.917C118.402 284.849 116.911 285.233 115.584 285.966C114.258 286.699 113.139 287.757 112.333 289.04L83.293 335.259C82.4795 336.559 82.1743 338.114 82.436 339.625H384.215C384.477 338.114 384.172 336.559 383.359 335.259Z" fill="#B1D0FB"/>
<path d="M82.436 339.626C82.489 339.936 82.556 340.243 82.657 340.546L83.115 341.919C83.5284 343.16 84.3218 344.239 85.3827 345.004C86.4436 345.768 87.7182 346.18 89.026 346.18H377.623C378.931 346.18 380.206 345.768 381.267 345.004C382.328 344.239 383.121 343.16 383.535 341.919L383.992 340.546C384.089 340.245 384.163 339.938 384.214 339.626H82.436ZM130.844 307.658L132.259 304.547H125.261L123.763 307.658H130.844ZM143.172 298.802L143.866 297.179L144.502 295.69H137.731L136.316 298.802H143.172ZM133.705 304.547L132.291 307.658H139.387L140.716 304.547H133.705ZM132.857 303.23L134.271 300.118H127.393L125.895 303.23H132.857ZM275.333 295.69L276.116 298.802H282.133L281.267 295.69H275.333ZM167.365 304.547L166.415 307.658H173.569L174.478 304.547H167.365ZM158.998 304.547L157.879 307.658H165.038L165.989 304.547H158.998ZM150.593 304.547L149.347 307.658H156.479L157.599 304.547H150.593ZM142.148 304.547L140.819 307.658H147.928L149.174 304.547H142.148ZM282.635 295.69L283.5 298.802H289.123L288.212 295.69H282.635ZM191.562 300.118L190.779 303.23H196.437L197.136 300.118H191.562ZM252.946 295.69L253.475 298.802H260.004L259.39 295.69H252.946ZM190.535 298.802L191.318 295.69H185.384L184.517 298.802H190.535ZM183.15 298.802L184.017 295.69H178.439L177.529 298.802H183.15ZM197.432 298.802L198.13 295.69H192.675L191.894 298.802H197.432ZM289.585 295.69L290.494 298.802H297.529L296.577 295.69H289.585ZM162.185 295.69L161.065 298.802H167.745L168.237 297.197L168.696 295.69H162.185ZM159.666 298.802L160.785 295.69H154.138L152.894 298.802H159.666ZM145.935 295.69L144.604 298.802H151.475L152.123 297.183L152.72 295.69H145.935ZM268.521 295.69L269.219 298.802H274.758L273.975 295.69H268.521ZM260.732 295.69L261.346 298.802H267.869L267.171 295.69H260.732ZM176.157 298.802L177.067 295.69H170.073L169.122 298.802H176.157ZM184.384 294.374L185.192 291.477H179.67L178.822 294.374H184.384ZM177.451 294.374L178.298 291.477H171.363L170.476 294.374H177.451ZM245.257 295.69L245.62 298.802H252.14L251.61 295.69H245.257ZM206.178 294.374L206.751 291.477H200.427L199.777 294.374H206.178ZM198.426 294.374L199.077 291.477H193.736L193.008 294.374H198.426ZM191.65 294.374L192.377 291.477H186.559L185.751 294.374H191.65ZM322.149 295.69L323.479 298.802H330.335L328.92 295.69H322.149ZM145.066 294.374L146.304 291.477H139.645L138.329 294.374H145.066ZM153.248 294.374L154.407 291.477H147.736L146.497 294.374H153.248ZM169.099 294.374L169.985 291.477H163.701L162.659 294.374H169.099ZM330.367 295.69L331.782 298.802H338.623L337.124 295.69H330.367ZM161.259 294.374L162.301 291.477H155.826L154.667 294.374H161.259ZM297.954 295.69L298.906 298.802H305.586L304.467 295.69H297.954ZM205.511 304.547L204.897 307.658H211.666L212.196 304.547H205.511ZM175.851 304.547L174.942 307.658H180.682L181.549 304.547H175.851ZM197.492 304.547L196.793 307.658H203.555L204.169 304.547H197.492ZM182.917 304.547L182.05 307.658H188.307L189.089 304.547H182.917ZM190.448 304.547L189.665 307.658H195.443L196.141 304.547H190.448ZM215.041 295.69L214.511 298.802H221.031L221.393 295.69H215.041ZM213.93 294.374L214.423 291.477H208.093L207.521 294.374H213.93ZM206.386 300.118L205.771 303.23H212.42L212.951 300.118H206.386ZM313.93 295.69L315.176 298.802H322.047L320.717 295.69H313.93ZM220.516 303.23L220.878 300.118H214.286L213.756 303.23H220.516ZM305.865 295.69L306.986 298.802H313.758L312.512 295.69H305.865ZM134.87 298.802L136.284 295.69H129.526L128.027 298.802H134.87ZM284.602 307.658L283.735 304.547H277.562L278.343 307.658H284.602ZM184.15 300.118L183.284 303.23H189.421L190.204 300.118H184.15ZM296.174 294.374L295.289 291.477H288.354L289.199 294.374H296.174ZM311.984 294.374L310.825 291.477H304.349L305.392 294.374H311.984ZM303.993 294.374L302.95 291.477H296.667L297.552 294.374H303.993ZM266.875 294.374L266.225 291.477H259.901L260.472 294.374H266.875ZM259.131 294.374L258.559 291.477H252.228L252.721 294.374H259.131ZM320.154 294.374L318.916 291.477H312.244L313.404 294.374H320.154ZM280.9 294.374L280.093 291.477H274.273L275.002 294.374H280.9ZM273.643 294.374L272.915 291.477H267.574L268.224 294.374H273.643ZM276.986 307.658L276.203 304.547H270.51L271.208 307.658H276.986ZM325.833 307.658L324.502 304.547H317.478L318.724 307.658H325.833ZM308.774 307.658L307.653 304.547H300.662L301.613 307.658H308.774ZM342.888 307.658L341.388 304.547H334.393L335.807 307.658H342.888ZM334.361 307.658L332.947 304.547H325.935L327.264 307.658H334.361ZM317.304 307.658L316.058 304.547H309.053L310.172 307.658H317.304ZM269.858 307.658L269.161 304.547H262.482L263.097 307.658H269.858ZM328.322 294.374L327.006 291.477H320.347L321.586 294.374H328.322ZM340.085 298.802H346.398L344.639 295.69H338.586L340.085 298.802ZM291.711 307.658L290.8 304.547H285.102L285.969 307.658H291.711ZM336.491 294.374L335.094 291.477H328.452L329.768 294.374H336.491ZM300.236 307.658L299.285 304.547H292.173L293.082 307.658H300.236ZM343.896 294.374L342.258 291.477H336.556L337.952 294.374H343.896ZM287.828 294.374L286.983 291.477H281.46L282.267 294.374H287.828ZM245.324 307.658L244.963 304.547H238.136L238.263 307.658H245.324ZM144.042 300.118L143.348 301.742L142.712 303.23H149.702L150.947 300.118H144.042ZM252.895 303.23L252.365 300.118H245.772L246.135 303.23H252.895ZM141.279 303.23L142.61 300.118H135.717L134.978 301.745L134.304 303.23H141.279ZM199.481 295.69L198.782 298.802H205.304L205.918 295.69H199.481ZM207.261 295.69L206.646 298.802H213.175L213.705 295.69H207.261ZM168.719 300.118L167.768 303.23H174.863L175.772 300.118H168.719ZM152.366 300.118L151.12 303.23H158.072L159.192 300.118H152.366ZM177.144 300.118L176.235 303.23H181.916L182.783 300.118H177.144ZM237.959 300.118L238.085 303.23H244.809L244.447 300.118H237.959ZM160.592 300.118L159.472 303.23H166.391L167.343 300.118H160.592ZM243.779 294.374L243.441 291.477H237.611L237.727 294.374H243.779ZM261.755 307.658L261.14 304.547H254.456L254.985 307.658H261.755ZM230.359 291.477L230.241 294.374H236.409L236.292 291.477H230.359ZM230.188 295.69L230.063 298.802H236.587L236.462 295.69H230.188ZM244.294 298.802L243.931 295.69H237.78L237.905 298.802H244.294ZM251.386 294.374L250.892 291.477H244.767L245.105 294.374H251.386ZM230.01 300.118L229.884 303.23H236.766L236.641 300.118H230.01ZM229.832 304.547L229.706 307.658H236.944L236.819 304.547H229.832ZM228.924 294.374L229.041 291.477H223.209L222.872 294.374H228.924ZM215.265 294.374H221.546L221.883 291.477H215.76L215.265 294.374ZM260.88 303.23L260.264 300.118H253.7L254.231 303.23H260.88ZM198.486 300.118L197.788 303.23H204.429L205.044 300.118H198.486ZM114.503 308.974L112.964 311.696H120.357L121.668 308.974H114.503ZM290.416 303.23L289.507 300.118H283.867L284.736 303.23H290.416ZM286.336 308.974L287.095 311.696H292.891L292.095 308.974H286.336ZM275.872 303.23L275.089 300.118H269.516L270.213 303.23H275.872ZM228.389 307.658L228.514 304.547H221.689L221.327 307.658H228.389ZM310.646 308.974L311.625 311.696H318.92L317.832 308.974H310.646ZM332.349 303.23L330.934 300.118H324.041L325.371 303.23H332.349ZM319.25 308.974L320.339 311.696H327.559L326.395 308.974H319.25ZM213.532 304.547L213.001 307.658H220.001L220.363 304.547H213.532ZM117.004 304.547L115.247 307.658H122.302L123.8 304.547H117.004ZM246.802 308.974L247.12 311.696H254.338L253.874 308.974H246.802ZM140.256 308.974L139.093 311.696H146.312L147.401 308.974H140.256ZM228.336 308.974H221.174L220.857 311.696H228.226L228.336 308.974ZM323.939 303.23L322.611 300.118H315.705L316.95 303.23H323.939ZM123.129 308.974L121.818 311.696H129.009L130.246 308.974H123.129ZM261.607 300.118L262.222 303.23H268.864L268.166 300.118H261.607ZM293.466 308.974L294.262 311.696H301.471L300.638 308.974H293.466ZM263.357 308.974L263.894 311.696H270.765L270.155 308.974H263.357ZM298.882 303.23L297.931 300.118H290.879L291.787 303.23H298.882ZM307.18 303.23L306.059 300.118H299.309L300.26 303.23H307.18ZM255.21 308.974L255.673 311.696H262.551L262.015 308.974H255.21ZM302.016 308.974L302.849 311.696H310.226L309.247 308.974H302.016ZM122.011 295.69L120.252 298.802H126.566L128.065 295.69H122.011ZM336.405 308.974L337.643 311.696H344.833L343.521 308.974H336.405ZM124.392 291.477L122.755 294.374H128.699L130.094 291.477H124.392ZM315.531 303.23L314.286 300.118H307.458L308.579 303.23H315.531ZM210.978 311.696L211.441 308.974H148.82L147.729 311.696H210.978ZM271.505 308.974L272.115 311.696H278.002L277.317 308.974H271.505ZM222.357 298.802H228.746L228.871 295.69H222.719L222.357 298.802ZM349.646 304.547H342.85L346.294 311.696H353.687L349.646 304.547ZM342.217 303.23H348.902L347.142 300.118H340.719L342.217 303.23ZM340.755 303.23L339.257 300.118H332.38L333.794 303.23H340.755ZM219.531 311.696L219.848 308.974H212.777L212.313 311.696H219.531ZM229.654 308.974L229.544 311.696H245.795L245.477 308.974H229.654ZM327.828 308.974L328.991 311.696H336.197L334.959 308.974H327.828ZM283.369 303.23L282.5 300.118H276.448L277.23 303.23H283.369ZM278.675 308.974L279.361 311.696H285.728L284.969 308.974H278.675ZM119.507 300.118L117.749 303.23H124.434L125.933 300.118H119.507ZM136.882 294.374L138.2 291.477H131.556L130.161 294.374H136.882ZM131.692 308.974L130.455 311.696H137.66L138.824 308.974H131.692ZM228.567 303.23L228.693 300.118H222.204L221.842 303.23H228.567ZM253.12 304.547H246.289L246.65 307.658H253.65L253.12 304.547ZM274.58 334.885H192.072C191.721 334.885 191.4 334.723 191.192 334.441C191.09 334.304 191.021 334.144 190.992 333.975C190.964 333.806 190.976 333.633 191.027 333.469L196.272 316.422C196.34 316.198 196.479 316.002 196.667 315.863C196.855 315.725 197.083 315.65 197.317 315.651H269.335C269.818 315.651 270.238 315.961 270.381 316.422L275.626 333.469C275.73 333.805 275.669 334.159 275.461 334.441C275.251 334.723 274.931 334.885 274.58 334.885ZM197.316 316.626C197.291 316.626 197.266 316.634 197.246 316.649C197.225 316.664 197.21 316.686 197.203 316.71L191.958 333.757C191.952 333.775 191.951 333.793 191.954 333.812C191.957 333.83 191.965 333.847 191.976 333.862C191.987 333.877 192.001 333.889 192.017 333.898C192.034 333.906 192.052 333.91 192.071 333.91H274.58C274.598 333.91 274.617 333.906 274.633 333.898C274.65 333.889 274.664 333.877 274.675 333.862C274.686 333.847 274.694 333.83 274.697 333.812C274.7 333.793 274.699 333.775 274.693 333.757L269.448 316.709C269.44 316.685 269.425 316.664 269.404 316.649C269.384 316.634 269.359 316.626 269.334 316.626H197.316Z" fill="#0367F2"/>
<path d="M273.393 161.247L183.768 175.383L269.942 218.499L359.197 205.225L273.393 161.247Z" fill="#023985"/>
<path d="M183.768 175.383V177.434L270.007 222.502L359.197 207.188V205.225L269.942 218.499L183.768 175.383ZM217.103 223.891L215.73 233.003C215.73 233.003 252.533 262.552 304.426 248.023L305.221 240.904C259.351 248.578 230.477 233.709 217.103 223.891Z" fill="#023985"/>
<path d="M326.37 271.87C321.568 268.061 318.165 262.442 316.545 256.53C316.425 256.092 315.84 256.251 315.772 256.626C315.663 256.481 315.443 256.46 315.267 256.552C315.183 256.247 314.688 256.108 314.498 256.476C311.204 262.861 313.748 270.072 315.952 276.388C316.125 276.884 316.674 276.617 316.5 276.119C314.776 271.176 312.93 265.641 313.979 260.434C313.394 267.018 315.588 273.761 319.607 278.986C319.897 279.362 320.348 278.91 320.056 278.53C316.408 273.787 314.522 267.767 314.717 261.789C314.829 264.144 315.194 266.492 315.948 268.713C317.102 272.115 319.031 275.363 320.963 278.376C321.247 278.819 321.695 278.363 321.411 277.92C319.555 275.024 317.954 271.913 316.795 268.662C316.299 267.269 315.972 265.81 315.764 264.329C316.874 269.118 319.187 273.62 322.511 277.275C322.861 277.66 323.324 277.318 322.97 276.929C319.327 272.924 317.137 267.796 316.234 262.506C317.57 267.461 320.037 272.147 323.294 276.172C323.623 276.579 323.967 276.137 323.634 275.726C320.454 271.797 318.352 267.202 317.039 262.368C318.808 267.355 321.103 272.165 325.158 275.711C325.555 276.058 325.989 275.656 325.593 275.309C322.808 272.873 320.973 269.583 319.476 266.284C321.1 269.178 323.061 271.869 325.318 274.302C325.676 274.687 325.978 274.074 325.624 273.693C323.631 271.549 322.102 269.175 320.621 266.665C322.145 268.72 323.929 270.568 325.928 272.163C326.338 272.49 326.784 272.198 326.37 271.87Z" fill="#FFC97B"/>
<path d="M317.929 202.872C316.057 200.635 313.529 199.164 310.94 197.908C305.791 195.412 300.071 194.327 294.49 193.271C286.602 191.779 278.532 190.397 271.972 185.426C271.717 185.232 271.471 185.33 271.324 185.526C271.311 185.538 271.303 185.553 271.292 185.566C271.288 185.574 271.282 185.578 271.278 185.585C271.12 185.78 271.077 186.059 271.311 186.283C276.118 190.878 282.545 193.153 288.871 194.755C295.264 196.373 301.789 197.481 307.908 200.021L308.478 200.258C308.515 200.273 308.717 200.366 308.719 200.365C309.032 200.517 309.342 200.674 309.654 200.828C310.799 201.396 311.915 201.984 312.963 202.722C314.22 203.606 315.384 204.689 316.192 206.005C317.075 207.445 317.382 209.059 317.349 210.732C317.316 212.474 316.993 214.206 316.71 215.921C316.417 217.697 316.154 219.477 315.881 221.256C315.316 224.933 314.79 228.613 314.393 232.312C313.519 240.455 313.281 248.762 314.745 256.854C314.854 257.455 315.861 257.323 315.816 256.71C315.247 249.03 315.873 241.329 316.951 233.72C317.487 229.933 318.137 226.162 318.799 222.395C319.42 218.859 320.241 215.294 320.531 211.712C320.795 208.463 320.042 205.397 317.929 202.872Z" fill="#FFC97B"/>
<path d="M314.339 257.433C314.432 257.389 314.526 257.347 314.621 257.307C314.678 257.284 314.676 257.285 314.612 257.309C314.64 257.299 314.667 257.288 314.695 257.28L314.821 257.239C315.025 257.176 315.234 257.131 315.445 257.1C315.496 257.093 315.548 257.084 315.599 257.081C315.456 257.088 315.623 257.081 315.651 257.079C315.753 257.073 315.857 257.071 315.959 257.073C316.062 257.076 316.165 257.081 316.267 257.091C316.318 257.096 316.37 257.101 316.42 257.108C316.45 257.112 316.479 257.115 316.508 257.121C316.437 257.108 316.432 257.107 316.494 257.119C316.644 257.147 316.776 257.154 316.916 257.08C317.041 257.012 317.135 256.899 317.178 256.763C317.248 256.508 317.123 256.135 316.823 256.079C315.807 255.88 314.755 256.017 313.824 256.47C313.567 256.596 313.453 256.96 313.6 257.208C313.755 257.471 314.064 257.568 314.339 257.433Z" fill="#E8AA52"/>
<path d="M314.23 256.368C314.323 256.323 314.416 256.282 314.511 256.242C314.569 256.219 314.567 256.221 314.503 256.244L314.586 256.215L314.712 256.174C314.966 256.096 315.226 256.044 315.49 256.017C315.347 256.024 315.513 256.017 315.542 256.014C315.747 256.002 315.953 256.007 316.158 256.027C316.21 256.033 316.261 256.038 316.311 256.045L316.399 256.058C316.328 256.045 316.322 256.044 316.385 256.055C316.535 256.083 316.667 256.091 316.807 256.017C316.932 255.949 317.026 255.835 317.069 255.7C317.138 255.444 317.014 255.071 316.714 255.016C315.699 254.816 314.646 254.953 313.715 255.406C313.459 255.533 313.344 255.898 313.491 256.145C313.562 256.27 313.678 256.364 313.816 256.405C313.953 256.447 314.102 256.433 314.23 256.368Z" fill="#E8AA52"/>
<path d="M307.915 219.462L308.36 215.916L270.007 222.502L221.725 197.269L220.69 203.232L269.043 227.574L307.915 219.462Z" fill="#012B66"/>
<path d="M269.043 227.574L220.689 203.232L217.103 223.891C230.477 233.709 259.351 248.578 305.22 240.905L307.914 219.462L269.043 227.574Z" fill="#023985"/>
<path d="M210.427 255.604C212.567 261.369 207.969 268.393 200.157 271.293C192.345 274.193 187.886 270.536 184.761 265.24C180.19 257.494 184.596 253.316 192.407 250.416C200.22 247.517 208.287 249.839 210.427 255.604Z" fill="#FFEACC"/>
<path d="M132.418 192.115C132.418 192.115 151.804 212.079 167.69 247.912C167.69 247.912 175.225 267.365 180.168 272.228C180.168 272.228 176.167 267.72 182.276 260.522C186.764 255.236 193.308 251.997 200.237 251.752C204.108 251.615 208.152 252.424 210.454 255.679C210.454 255.679 184.599 225.222 167.707 198.942C160.957 188.443 157.762 179.768 156.36 173.136C156.36 173.136 155.087 171.639 152.55 170.386C143.224 165.78 132.237 171.98 130.61 182.254C130.458 183.212 130.363 184.234 130.338 185.32C130.338 185.32 130.204 189.873 132.418 192.115Z" fill="white"/>
<path d="M180.168 272.229C180.168 272.229 188.654 282.467 207.871 270.182C207.871 270.182 219.765 262.247 213.827 248.425C213.827 248.425 201.493 239.23 191.766 227.574C182.04 215.919 170.01 200.05 160.028 179.061L157.483 177.521C157.483 177.521 159.317 187.474 171.197 204.246C183.078 221.018 204.993 249.098 204.993 249.098L208.345 253.136C210.269 255.454 210.929 258.638 209.867 261.457C208.353 265.472 203.912 270.227 191.512 270.948L183.768 258.925C183.768 258.925 176.248 265.153 180.168 272.229Z" fill="#FFE0B3"/>
<path d="M198.938 235.369C198.938 235.369 176.666 212.145 161.053 175.383C161.053 175.383 158.237 170.908 156.446 168.842C156.446 168.842 170.018 210.794 198.938 235.369Z" fill="white"/>
<path d="M157.976 228.629C162.662 220.178 172.787 214.588 182.425 215.072C185.856 215.244 185.846 210.978 182.425 210.806C170.994 210.233 159.661 215.938 154.118 225.939C154.118 225.939 156.31 231.634 157.976 228.629Z" fill="#FFC97B"/>
<path d="M123.472 244.164H79.761C73.966 244.164 69.225 239.423 69.225 233.628V210.864C69.225 205.069 73.966 200.328 79.761 200.328H123.472C129.267 200.328 134.008 205.069 134.008 210.864V233.628C134.008 239.423 129.267 244.164 123.472 244.164Z" fill="#023985"/>
<path d="M94.664 222.247V214.219L101.617 218.232L108.569 222.247L101.617 226.261L94.664 230.274V222.247Z" fill="#B1D0FB"/>
<path d="M88.96 147.484C88.96 134.099 78.11 123.25 64.727 123.25C51.343 123.25 40.493 134.099 40.493 147.484C40.493 157.184 46.194 165.549 54.427 169.42V177.149H75.027V169.42C83.259 165.549 88.96 157.184 88.96 147.484Z" fill="white"/>
<path d="M75.69 181.143H53.764C52.665 181.143 51.767 180.245 51.767 179.146C51.767 178.046 52.665 177.148 53.764 177.148H75.693C76.791 177.148 77.69 178.046 77.69 179.146C77.6881 179.675 77.477 180.182 77.1027 180.556C76.7283 180.931 76.2212 181.141 75.692 181.143H75.69ZM64.727 192.478C62.6021 192.478 60.5642 191.634 59.0616 190.131C57.5591 188.629 56.715 186.591 56.715 184.466V183.142H72.74V184.466C72.7397 186.591 71.8954 188.629 70.3927 190.131C68.89 191.634 66.852 192.478 64.727 192.478Z" fill="#FFC97B"/>
<path d="M75.69 185.138H53.764C52.665 185.138 51.767 184.239 51.767 183.141C51.767 182.042 52.665 181.143 53.764 181.143H75.693C76.791 181.143 77.69 182.041 77.69 183.141C77.6881 183.67 77.477 184.177 77.1027 184.551C76.7283 184.926 76.2212 185.136 75.692 185.138H75.69Z" fill="#E8AA52"/>
<path d="M66.93 177.149H65.795V143.483C65.7944 143.2 65.6818 142.929 65.4816 142.728C65.2814 142.528 65.0101 142.415 64.727 142.415C64.137 142.415 63.657 142.895 63.657 143.483V177.149H62.522V143.483C62.5392 142.91 62.779 142.366 63.1905 141.967C63.6019 141.568 64.1527 141.344 64.726 141.344C65.2993 141.344 65.85 141.568 66.2615 141.967C66.6729 142.366 66.9127 142.91 66.93 143.483V177.149Z" fill="#FFC97B"/>
<path d="M26.637 139.221L25.972 142.689L36.101 144.631C36.2354 143.459 36.4414 142.297 36.718 141.151L26.637 139.221ZM34.66 123.25L32.525 126.067L40.603 132.183C41.2489 131.196 41.9546 130.25 42.716 129.349L34.66 123.25ZM48.821 112.462L45.666 114.051L50.208 123.053C51.2247 122.457 52.277 121.925 53.359 121.458L48.821 112.462ZM103.482 142.689L102.817 139.221L92.734 141.151C93.008 142.286 93.217 143.447 93.352 144.631L103.482 142.689ZM96.928 126.067L94.792 123.25L86.736 129.349C87.496 130.249 88.201 131.195 88.849 132.183L96.928 126.067ZM83.787 114.051L80.632 112.462L76.093 121.459C77.1755 121.926 78.2282 122.459 79.245 123.055L83.787 114.051ZM66.532 119.188L66.445 108.939L62.911 108.972L62.999 119.182C63.574 119.146 64.1499 119.127 64.726 119.125C65.334 119.127 65.936 119.151 66.532 119.188Z" fill="#0367F2"/>
<path d="M422.691 332.569H320.278V352.761H422.691V332.569Z" fill="#FFC97B"/>
<path d="M330.167 332.569H326.042V352.762H330.167V332.569ZM336.359 332.57H332.233V352.762H336.359V332.57ZM410.736 332.57H406.611V352.762H410.736V332.57ZM416.926 332.57H412.801V352.762H416.926V332.57Z" fill="#E8AA52"/>
<path d="M432.545 321.318V318.211C432.545 313.796 428.953 310.205 424.539 310.205H333.262V329.325H424.539C428.953 329.325 432.545 325.733 432.545 321.318Z" fill="white"/>
<path d="M424.538 306.84H332.664V310.205H424.538C428.953 310.205 432.544 313.797 432.544 318.211V321.318C432.544 325.733 428.951 329.324 424.538 329.324H332.664V332.688H424.538C430.808 332.688 435.908 327.588 435.908 321.318V318.211C435.908 311.941 430.808 306.84 424.538 306.84Z" fill="#023985"/>
<path d="M426.325 314.485H333.261V316.015H426.325V314.485ZM426.325 319.094H333.261V320.624H426.325V319.094ZM426.325 323.702H333.261V325.232H426.325V323.702Z" fill="#F4F9FF"/>
<path d="M325.438 296.721V293.924C325.438 289.948 328.671 286.714 332.647 286.714H414.836V303.93H332.647C330.736 303.928 328.903 303.168 327.552 301.816C326.2 300.465 325.44 298.632 325.438 296.721Z" fill="white"/>
<path d="M332.647 283.684H415.374V286.714H332.647C330.735 286.716 328.903 287.476 327.551 288.828C326.199 290.18 325.439 292.012 325.437 293.924V296.721C325.439 298.633 326.199 300.465 327.551 301.817C328.903 303.169 330.735 303.929 332.647 303.931H415.374V306.96H332.647C327.001 306.96 322.408 302.367 322.408 296.721V293.924C322.408 288.278 327.001 283.684 332.647 283.684Z" fill="#FFC97B"/>
<path d="M331.037 291.946H414.836V290.568H331.037V291.946ZM331.037 296.095H414.836V294.717H331.037V296.095ZM331.037 300.245H414.836V298.867H331.037V300.245Z" fill="#F4F9FF"/>
<path d="M160.299 68.995C164.168 68.995 167.304 72.035 167.304 75.785V76.818C168.713 80.782 169.57 85.941 169.57 91.598C169.57 97.254 168.712 102.412 167.304 106.377V107.41C167.304 111.16 164.168 114.201 160.299 114.201C155.179 114.201 151.029 104.082 151.029 91.598C151.028 79.114 155.179 68.995 160.299 68.995Z" fill="#FFC97B"/>
<path d="M154.178 91.885C154.178 99.521 154.77 105.712 155.499 105.712C156.229 105.712 156.819 99.522 156.819 91.885C156.819 84.249 156.228 78.058 155.499 78.058C154.77 78.059 154.178 84.249 154.178 91.885Z" fill="#E8AA52"/>
<path d="M177.111 81.355V102.416C176.634 107.626 171.841 112.456 165.416 114.201V69.571C171.841 71.315 176.634 76.145 177.111 81.355Z" fill="#0367F2"/>
<path d="M165.416 116.62C166.463 116.62 167.318 115.79 167.318 114.776V68.995C167.318 67.981 166.461 67.15 165.416 67.15C164.37 67.15 163.515 67.98 163.515 68.995V114.776C163.514 115.79 164.37 116.62 165.416 116.62Z" fill="#023985"/>
<path d="M123.913 68.995C120.045 68.995 116.909 72.035 116.909 75.785V76.818C115.5 80.782 114.643 85.941 114.643 91.598C114.643 97.254 115.501 102.412 116.909 106.377V107.41C116.909 111.16 120.045 114.201 123.913 114.201C129.034 114.201 133.184 104.082 133.184 91.598C133.184 79.114 129.034 68.995 123.913 68.995Z" fill="#FFC97B"/>
<path d="M130.033 91.885C130.033 99.521 129.442 105.712 128.713 105.712C127.984 105.712 127.392 99.522 127.392 91.885C127.392 84.249 127.984 78.058 128.713 78.058C129.442 78.059 130.033 84.249 130.033 91.885Z" fill="#E8AA52"/>
<path d="M107.101 81.355V102.416C107.578 107.626 112.371 112.456 118.796 114.201V69.571C112.371 71.315 107.578 76.145 107.101 81.355Z" fill="#0367F2"/>
<path d="M118.797 116.62C117.75 116.62 116.895 115.79 116.895 114.776V68.995C116.895 67.981 117.75 67.15 118.797 67.15C119.843 67.15 120.698 67.98 120.698 68.995V114.776C120.698 115.79 119.842 116.62 118.797 116.62Z" fill="#023985"/>
<path d="M165.596 41.133C161.796 37.996 156.813 36.011 152.087 34.851C147.22 33.6635 142.181 33.352 137.205 33.931C135.707 34.1023 134.217 34.3425 132.741 34.651C131.732 34.863 130.623 35.029 129.687 35.473C128.709 35.937 127.75 36.449 126.782 36.937L118.923 40.899C117.88 41.425 118.003 42.95 118.923 43.507C121.345 44.976 124.119 45.164 126.861 44.727C128.79 44.419 130.551 43.703 132.381 43.069C135.669 41.929 139.221 41.373 142.693 41.356C145.789 41.342 148.929 41.806 151.789 43.029C156.02 44.852 161.082 46.064 165.29 43.507C166.054 43.041 166.369 41.771 165.596 41.133Z" fill="#0367F2"/>
<path d="M142.76 32.251L142.767 32.218C142.545 32.218 142.327 32.231 142.106 32.234C141.886 32.231 141.668 32.218 141.445 32.218L141.452 32.251C119.637 32.947 102.162 50.838 102.162 72.821V97.458C102.162 98.7721 102.684 100.032 103.613 100.962C104.543 101.891 105.803 102.413 107.117 102.413V78.123L107.01 77.492C105.341 67.642 107.476 57.389 113.485 49.409C116.293 45.682 120.096 42.172 125.244 39.635L125.427 39.545C135.917 34.432 148.296 34.432 158.786 39.545L158.969 39.635C164.149 42.187 167.966 45.725 170.777 49.475C176.752 57.449 178.868 67.675 177.202 77.498L177.096 78.125V102.414C178.41 102.414 179.67 101.892 180.599 100.963C181.529 100.034 182.051 98.774 182.051 97.46V72.822C182.05 50.838 164.575 32.945 142.76 32.251Z" fill="#023985"/>
<path d="M442.306 120.557H377.881V213.725H442.306V120.557Z" fill="#B1D0FB"/>
<path d="M435.351 134.222H384.834V136.285H435.351V134.222ZM435.351 143.688H384.834V145.751H435.351V143.688ZM435.351 153.155H384.834V155.218H435.351V153.155ZM435.351 162.621H384.834V164.684H435.351V162.621ZM435.351 172.088H384.834V174.15H435.351V172.088ZM435.351 181.555H384.834V183.617H435.351V181.555Z" fill="#0367F2"/>
<path d="M435.352 204.55H384.836V205.118H435.352V204.55Z" fill="white"/>
<path d="M391.737 195.603C394.318 196.037 396.938 196.167 399.547 195.94C401.957 195.731 404.516 195.325 406.764 194.398C408.364 193.738 410.108 191.931 408.985 190.104C407.996 188.494 405.514 188.33 403.869 188.721C401.952 189.178 400.246 190.433 399.08 192.001C397.912 193.57 397.1 195.832 398.481 197.529C399.758 199.097 402.094 199.411 403.976 199.15C405.037 199.003 406.06 198.652 406.989 198.118C407.417 197.864 407.824 197.575 408.204 197.253C408.705 196.838 409.231 196.288 409.908 196.194C410.721 196.08 410.908 196.696 411.425 197.139C411.785 197.446 412.247 197.55 412.71 197.503C413.281 197.445 413.801 197.199 414.33 196.995C414.98 196.746 415.673 196.631 416.368 196.657C419.441 196.73 422.539 197.138 425.602 197.388C426.149 197.432 426.146 196.921 425.602 196.877C423.322 196.691 421.04 196.166 418.76 195.981C417.719 195.897 416.649 195.737 415.604 195.822C414.621 195.903 413.832 196.413 412.892 196.615C411.835 196.84 411.689 195.778 410.842 195.452C410.091 195.164 409.264 195.407 408.621 195.836C407.837 196.36 407.199 197.042 406.361 197.495C405.414 198.004 404.369 198.303 403.296 198.37C401.568 198.475 398.996 197.948 398.633 195.904C398.3 194.04 399.847 192.115 401.195 191.014C402.579 189.884 404.447 189.136 406.251 189.466C407.11 189.624 408.23 190.027 408.441 190.99C408.686 192.115 407.693 193.021 406.791 193.463C405.738 193.979 404.521 194.243 403.383 194.496C402.12 194.779 400.839 194.977 399.55 195.089C397.021 195.308 394.471 195.431 391.967 195.009C391.428 194.919 391.196 195.512 391.737 195.603Z" fill="#0367F2"/>
<path d="M463.84 177.11L452.514 170.966L455.843 164.829C456.189 164.191 456.774 163.717 457.47 163.511C458.165 163.305 458.914 163.383 459.552 163.729L466.068 167.265C466.706 167.611 467.18 168.196 467.387 168.891C467.593 169.587 467.515 170.336 467.169 170.974L463.84 177.11Z" fill="#B1D0FB"/>
<path d="M463.04 178.536L451.715 172.391L419.003 232.677L430.328 238.823L463.04 178.536Z" fill="#023985"/>
<path d="M459.394 176.564L455.35 174.37L422.638 234.656L426.682 236.851L459.394 176.564Z" fill="#023985"/>
<path d="M465.856 176.558L451.835 168.95L450.364 171.66L464.385 179.268L465.856 176.558Z" fill="#FFC97B"/>
<path d="M430.338 238.851L419.012 232.706L417.864 242.981L422.35 245.415L430.338 238.851Z" fill="#B1D0FB"/>
<path d="M422.35 245.416L417.864 242.981L417.11 249.721L422.35 245.416Z" fill="#023985"/>
<path d="M58.81 72.425L70.4 84.013M70.633 72.425L59.044 84.013M448.673 246.247L460.261 257.836M460.494 246.247L448.905 257.836" stroke="#0249AC" stroke-width="2.317" stroke-miterlimit="10"/>
<path d="M26.111 205.635L36.374 215.897M36.58 205.635L26.318 215.897" stroke="#023985" stroke-width="2.052" stroke-miterlimit="10"/>
<path d="M20.674 120.557C20.674 122.782 19.7902 124.915 18.217 126.489C16.6439 128.062 14.5102 128.945 12.2855 128.945C10.0607 128.945 7.92706 128.062 6.35391 126.489C4.78076 124.915 3.89697 122.782 3.89697 120.557C3.89697 118.332 4.78076 116.199 6.35391 114.625C7.92706 113.052 10.0607 112.168 12.2855 112.168C14.5102 112.168 16.6439 113.052 18.217 114.625C19.7902 116.199 20.674 118.332 20.674 120.557ZM348.902 114.099C351.126 114.099 353.26 113.215 354.832 111.642C356.405 110.07 357.289 107.936 357.289 105.712C357.289 103.488 356.405 101.354 354.832 99.7814C353.26 98.2086 351.126 97.325 348.902 97.325C346.678 97.325 344.544 98.2086 342.971 99.7814C341.399 101.354 340.515 103.488 340.515 105.712C340.515 107.936 341.399 110.07 342.971 111.642C344.544 113.215 346.678 114.099 348.902 114.099Z" fill="#0367F2" stroke="#0249AC" stroke-width="2.317" stroke-miterlimit="10"/>
<path d="M387.166 94.016C387.166 94.5814 386.941 95.1237 386.541 95.5234C386.141 95.9231 385.599 96.1476 385.034 96.1475C384.468 96.1474 383.926 95.9226 383.526 95.5227C383.126 95.1228 382.902 94.5804 382.902 94.015C382.902 93.4495 383.127 92.9073 383.527 92.5076C383.927 92.1078 384.469 91.8834 385.035 91.8835C385.6 91.8836 386.142 92.1084 386.542 92.5083C386.942 92.9082 387.166 93.4505 387.166 94.016ZM181.64 22.951C181.64 23.5163 181.415 24.0585 181.016 24.4582C180.616 24.8579 180.074 25.0825 179.509 25.0825C178.943 25.0825 178.401 24.8579 178.001 24.4582C177.602 24.0585 177.377 23.5163 177.377 22.951C177.377 22.3857 177.602 21.8435 178.001 21.4438C178.401 21.0441 178.943 20.8195 179.509 20.8195C180.074 20.8195 180.616 21.0441 181.016 21.4438C181.415 21.8435 181.64 22.3857 181.64 22.951Z" fill="#023985" stroke="#023985" stroke-width="2.052" stroke-miterlimit="10"/>
<path d="M45.642 293.424V298.464C38.869 298.845 33.472 304.46 33.472 311.326V315.615C33.472 322.65 39.137 328.378 46.142 328.501C48.686 342.302 60.772 352.762 75.31 352.762C91.696 352.762 104.979 339.479 104.979 323.093V293.424H45.642ZM37.642 315.614V311.325C37.642 306.758 41.169 303.004 45.642 302.632V323.092C45.642 323.5 45.656 323.904 45.672 324.308C41.185 323.95 37.642 320.192 37.642 315.614Z" fill="#023985"/>
<path d="M90.2 259.649C86.425 257.702 81.466 258.62 78.432 261.592C77.888 257.263 73.772 253.991 69.458 253.345C65.142 252.7 60.764 254.212 56.978 256.382C53.264 258.509 49.798 261.459 48.241 265.446C46.685 269.432 47.557 274.571 51.082 276.996C52.514 277.98 54.339 278.258 56.052 277.971C56.278 279.327 56.815 280.62 57.697 281.693C60.637 285.268 66.707 285.621 70.042 282.412C72.573 284.651 76.458 285.217 79.522 283.792C80.186 283.479 80.8057 283.08 81.365 282.605C81.14 285.575 80.012 288.483 78.111 290.781C81.792 289.5 84.939 286.756 86.708 283.282C87.868 281.005 88.413 278.432 88.341 275.879C91.206 275.328 93.835 273.231 94.768 270.426C96.11 266.394 93.976 261.594 90.2 259.649Z" fill="#B1D0FB"/>
<path d="M223.353 81.55H223.347C222.558 81.4854 221.764 81.5848 221.016 81.8421C220.267 82.0994 219.58 82.5088 218.997 83.0448C218.415 83.5807 217.95 84.2315 217.631 84.9561C217.312 85.6807 217.147 86.4634 217.146 87.255C217.147 88.0461 217.312 88.8284 217.63 89.5527C217.948 90.2771 218.413 90.9277 218.994 91.4638C219.576 91.9998 220.263 92.4096 221.01 92.6675C221.758 92.9253 222.551 93.0256 223.34 92.962C226.29 92.719 228.598 90.212 228.598 87.255C228.598 84.299 226.294 81.792 223.353 81.55Z" fill="#023985"/>
<path d="M243.418 87.256C243.418 86.267 243.033 85.337 242.332 84.636C241.989 84.2912 241.581 84.0178 241.131 83.8317C240.681 83.6457 240.2 83.5506 239.713 83.552H237.592L237.374 82.835C237.089 81.8987 236.714 80.9924 236.253 80.129L235.9 79.468L237.401 77.968C238.095 77.2726 238.485 76.3304 238.485 75.348C238.485 74.3656 238.095 73.4233 237.401 72.728C236.701 72.028 235.771 71.642 234.781 71.642C233.79 71.642 232.861 72.028 232.161 72.726L230.66 74.227L229.999 73.874C229.139 73.414 228.229 73.037 227.294 72.754L226.578 72.535V70.415C226.576 69.5609 226.28 68.7335 225.74 68.072C225.199 67.4105 224.448 66.9553 223.611 66.783C223.368 66.7345 223.121 66.71 222.873 66.71C221.884 66.71 220.953 67.095 220.254 67.795C219.554 68.495 219.169 69.425 219.169 70.415V72.535L218.453 72.753C217.518 73.037 216.608 73.415 215.747 73.873L215.086 74.227L213.585 72.727C212.889 72.0335 211.947 71.6441 210.965 71.6441C209.983 71.6441 209.041 72.0335 208.345 72.727C208 73.0706 207.727 73.479 207.541 73.9287C207.355 74.3783 207.26 74.8604 207.261 75.347C207.261 76.337 207.647 77.267 208.346 77.967L209.847 79.467L209.494 80.127C209.034 80.988 208.657 81.899 208.372 82.834L208.154 83.55H206.034C205.052 83.5511 204.11 83.9417 203.415 84.6363C202.721 85.3309 202.33 86.2727 202.329 87.255C202.329 88.245 202.715 89.175 203.414 89.875C204.114 90.575 205.045 90.96 206.034 90.96H208.154L208.372 91.676C208.657 92.61 209.034 93.521 209.494 94.381L209.847 95.042L208.346 96.542C207.652 97.2375 207.262 98.1799 207.262 99.1625C207.262 100.145 207.652 101.087 208.346 101.783C209.046 102.481 209.976 102.867 210.967 102.867C211.957 102.867 212.887 102.481 213.586 101.782L215.087 100.281L215.748 100.634C216.609 101.094 217.519 101.471 218.454 101.756L219.17 101.974V104.095C219.171 104.642 219.292 105.183 219.527 105.677C219.761 106.172 220.101 106.609 220.524 106.956C220.947 107.303 221.442 107.553 221.973 107.687C222.503 107.82 223.057 107.835 223.594 107.729L223.708 107.705C224.385 107.55 225.004 107.206 225.494 106.714C225.839 106.371 226.112 105.963 226.298 105.513C226.485 105.063 226.58 104.582 226.579 104.095V101.974L227.295 101.756C228.231 101.471 229.138 101.095 230.001 100.634L230.661 100.281L232.162 101.783C232.506 102.127 232.914 102.4 233.364 102.586C233.813 102.772 234.295 102.867 234.782 102.865C235.773 102.865 236.704 102.48 237.402 101.782C237.747 101.439 238.02 101.03 238.206 100.58C238.392 100.131 238.487 99.6487 238.486 99.162C238.486 98.172 238.101 97.242 237.401 96.542L235.9 95.042L236.253 94.382C236.713 93.521 237.09 92.609 237.375 91.675L237.593 90.96H239.714C240.696 90.9592 241.638 90.5687 242.332 89.8742C243.027 89.1798 243.417 88.2381 243.418 87.256ZM230.537 94.346C229.561 95.4047 228.376 96.2492 227.056 96.826C225.737 97.4028 224.312 97.6994 222.872 97.697C217.115 97.697 212.431 93.013 212.431 87.257C212.431 81.499 217.115 76.815 222.872 76.815C223.168 76.815 223.464 76.828 223.751 76.853C226.349 77.0669 228.772 78.2498 230.538 80.167C232.325 82.095 233.317 84.6279 233.314 87.257C233.316 89.8858 232.324 92.4183 230.537 94.346ZM381.892 248.566L381.89 248.569C381.665 249.034 381.54 249.541 381.521 250.058C381.502 250.574 381.59 251.089 381.78 251.569C381.97 252.05 382.257 252.486 382.624 252.85C382.991 253.214 383.429 253.498 383.911 253.684C384.393 253.869 384.908 253.952 385.424 253.928C385.94 253.904 386.445 253.774 386.908 253.545C387.371 253.316 387.781 252.994 388.114 252.599C388.446 252.204 388.693 251.744 388.839 251.249C389.099 250.349 389.013 249.384 388.598 248.544C388.184 247.704 387.47 247.049 386.597 246.708C384.797 246.015 382.729 246.831 381.892 248.566Z" fill="#023985"/>
<path d="M390.073 237.68C389.777 237.565 389.461 237.51 389.143 237.518C388.826 237.526 388.513 237.597 388.223 237.727C387.932 237.855 387.67 238.039 387.451 238.27C387.232 238.5 387.061 238.771 386.948 239.068L386.45 240.36L385.962 240.325C385.325 240.278 384.685 240.294 384.051 240.373L383.566 240.434L383.003 239.167C382.808 238.731 382.489 238.361 382.084 238.106C381.68 237.851 381.21 237.722 380.732 237.734C380.254 237.746 379.791 237.899 379.4 238.174C379.009 238.45 378.708 238.834 378.536 239.28C378.421 239.576 378.366 239.892 378.374 240.21C378.382 240.527 378.453 240.84 378.583 241.13L379.145 242.397L378.775 242.716C378.292 243.134 377.851 243.598 377.458 244.101L377.157 244.487L375.864 243.989C375.265 243.761 374.601 243.779 374.015 244.039C373.429 244.299 372.97 244.78 372.738 245.377C372.623 245.673 372.568 245.989 372.576 246.307C372.584 246.624 372.655 246.937 372.785 247.227C372.913 247.518 373.097 247.78 373.327 247.999C373.558 248.218 373.829 248.389 374.126 248.502L375.418 249L375.383 249.488C375.336 250.124 375.353 250.768 375.431 251.399L375.492 251.885L374.225 252.448C373.639 252.709 373.181 253.192 372.951 253.79C372.72 254.388 372.737 255.054 372.996 255.64C373.125 255.93 373.309 256.193 373.54 256.411C373.77 256.63 374.041 256.801 374.338 256.915C374.634 257.03 374.95 257.085 375.268 257.077C375.586 257.069 375.899 256.998 376.189 256.868L377.456 256.306L377.775 256.676C378.191 257.158 378.657 257.601 379.161 257.993L379.546 258.295L379.048 259.587C378.819 260.186 378.836 260.851 379.096 261.437C379.357 262.023 379.839 262.482 380.437 262.713C381.039 262.945 381.697 262.928 382.287 262.666C382.578 262.538 382.84 262.353 383.059 262.123C383.278 261.893 383.45 261.622 383.563 261.325L384.06 260.033L384.548 260.069C385.184 260.115 385.828 260.098 386.46 260.02L386.944 259.96L387.507 261.226C387.768 261.812 388.25 262.27 388.849 262.501C389.447 262.731 390.113 262.715 390.699 262.455C390.99 262.326 391.252 262.142 391.471 261.911C391.689 261.681 391.86 261.41 391.974 261.113C392.089 260.817 392.144 260.501 392.136 260.183C392.128 259.865 392.057 259.552 391.927 259.262L391.365 257.996L391.735 257.676C392.218 257.258 392.659 256.794 393.052 256.291L393.354 255.905L394.646 256.403C394.98 256.531 395.338 256.584 395.694 256.557C396.05 256.53 396.396 256.425 396.707 256.249C397.018 256.072 397.286 255.829 397.492 255.537C397.698 255.245 397.837 254.911 397.898 254.559L397.91 254.484C397.974 254.036 397.91 253.58 397.724 253.164C397.596 252.873 397.412 252.611 397.182 252.392C396.951 252.173 396.68 252.002 396.383 251.889L395.091 251.391L395.127 250.903C395.172 250.266 395.156 249.626 395.078 248.992L395.018 248.506L396.284 247.943C396.575 247.815 396.837 247.63 397.055 247.4C397.274 247.169 397.445 246.898 397.558 246.601C397.673 246.305 397.728 245.989 397.72 245.671C397.713 245.353 397.642 245.04 397.513 244.75C397.384 244.459 397.2 244.197 396.969 243.978C396.739 243.76 396.468 243.589 396.171 243.475C395.875 243.36 395.559 243.305 395.241 243.313C394.923 243.321 394.61 243.392 394.32 243.522L393.055 244.084L392.735 243.714C392.317 243.231 391.853 242.79 391.35 242.397L390.964 242.095L391.462 240.803C391.691 240.205 391.674 239.54 391.413 238.954C391.153 238.369 390.671 237.911 390.073 237.68ZM391.372 247.191C391.788 248.034 392.024 248.954 392.066 249.893C392.108 250.832 391.955 251.769 391.616 252.646C390.266 256.153 386.314 257.909 382.807 256.558C379.3 255.208 377.544 251.256 378.895 247.749C379.231 246.871 379.745 246.072 380.406 245.404C381.067 244.735 381.86 244.212 382.734 243.866C384.328 243.229 386.104 243.219 387.705 243.838C389.307 244.452 390.617 245.65 391.372 247.191Z" fill="#023985"/>
</svg>
